<svg width="25" height="25" viewBox="0 0 25 25" fill="none" xmlns="http://www.w3.org/2000/svg">
<path d="M12.5 2.08334C6.75626 2.08334 2.08334 5.82189 2.08334 10.4167C2.08334 13.4458 4.06043 16.1625 7.29168 17.6396V22.9167L12.8542 18.7448C18.4344 18.5958 22.9167 14.9167 22.9167 10.4167C22.9167 5.82189 18.2438 2.08334 12.5 2.08334ZM12.5 16.6667H12.1531L9.37501 18.75V16.2323L8.7073 15.975C5.90626 14.8969 4.16668 12.7667 4.16668 10.4167C4.16668 6.9698 7.90522 4.16668 12.5 4.16668C17.0948 4.16668 20.8333 6.9698 20.8333 10.4167C20.8333 13.8636 17.0948 16.6667 12.5 16.6667Z" fill="black"/>
</svg>
