<svg width="25" height="25" viewBox="0 0 25 25" fill="none" xmlns="http://www.w3.org/2000/svg">
<g clip-path="url(#clip0_16_121)">
<path d="M22.9329 10.5689L13.2362 1.64791C12.921 1.3579 12.5059 1.20095 12.0776 1.20986C11.6494 1.21878 11.2412 1.39288 10.9383 1.69576L2.02017 10.6139L1.5625 11.0715V24.2188H10.1562V16.0156H14.8438V24.2188H23.4375V11.0331L22.9329 10.5689ZM12.1112 2.77203C12.125 2.77203 12.1165 2.77501 12.1106 2.78082C12.1045 2.77501 12.0975 2.77203 12.1112 2.77203ZM21.875 22.6563H16.4062V16.0156C16.4062 15.6012 16.2416 15.2038 15.9486 14.9108C15.6556 14.6178 15.2582 14.4531 14.8438 14.4531H10.1562C9.74185 14.4531 9.34442 14.6178 9.0514 14.9108C8.75837 15.2038 8.59375 15.6012 8.59375 16.0156V22.6563H3.125V11.7188L12.1112 2.8006C12.1119 2.80001 12.1119 2.79947 12.1124 2.79889L21.875 11.7188V22.6563Z" fill="black"/>
<line x1="24" y1="17.5" x2="51" y2="17.5" stroke="black"/>
</g>
<defs>
<clipPath id="clip0_16_121">
<rect width="25" height="25" fill="white"/>
</clipPath>
</defs>
</svg>
