<svg width="25" height="25" viewBox="0 0 25 25" fill="none" xmlns="http://www.w3.org/2000/svg">
<g clip-path="url(#clip0_16_111)">
<path d="M22.5764 19.3264C21.9067 18.7294 21.3204 18.045 20.8333 17.2917C20.3015 16.2518 19.9828 15.1161 19.8958 13.9514V10.5208C19.9004 8.69139 19.2368 6.92324 18.0297 5.54859C16.8225 4.17393 15.155 3.2874 13.3403 3.05555V2.15972C13.3403 1.91384 13.2426 1.67803 13.0687 1.50417C12.8949 1.33031 12.6591 1.23264 12.4132 1.23264C12.1673 1.23264 11.9315 1.33031 11.7576 1.50417C11.5838 1.67803 11.4861 1.91384 11.4861 2.15972V3.06944C9.68767 3.318 8.04024 4.2099 6.84896 5.57993C5.65769 6.94997 5.00327 8.70531 5.00693 10.5208V13.9514C4.91996 15.1161 4.60122 16.2518 4.06943 17.2917C3.59088 18.0433 3.01401 18.7276 2.35415 19.3264C2.28008 19.3915 2.22071 19.4716 2.18 19.5614C2.13929 19.6512 2.11817 19.7486 2.11804 19.8472V20.7917C2.11804 20.9758 2.19121 21.1525 2.32144 21.2827C2.45167 21.4129 2.62831 21.4861 2.81249 21.4861H22.118C22.3022 21.4861 22.4789 21.4129 22.6091 21.2827C22.7393 21.1525 22.8125 20.9758 22.8125 20.7917V19.8472C22.8124 19.7486 22.7912 19.6512 22.7505 19.5614C22.7098 19.4716 22.6505 19.3915 22.5764 19.3264ZM3.56249 20.0972C4.2086 19.4731 4.77749 18.7736 5.25693 18.0139C5.9268 16.758 6.31765 15.3722 6.40276 13.9514V10.5208C6.37522 9.70697 6.51174 8.89588 6.80418 8.13588C7.09663 7.37587 7.53902 6.68249 8.10502 6.09701C8.67102 5.51154 9.34904 5.04595 10.0987 4.72796C10.8484 4.40998 11.6544 4.24611 12.4687 4.24611C13.2831 4.24611 14.0891 4.40998 14.8388 4.72796C15.5884 5.04595 16.2665 5.51154 16.8325 6.09701C17.3985 6.68249 17.8408 7.37587 18.1333 8.13588C18.4257 8.89588 18.5623 9.70697 18.5347 10.5208V13.9514C18.6198 15.3722 19.0107 16.758 19.6805 18.0139C20.16 18.7736 20.7289 19.4731 21.375 20.0972H3.56249Z" fill="black"/>
<path d="M12.5 23.8056C12.9375 23.7955 13.3573 23.631 13.6851 23.3413C14.013 23.0515 14.2279 22.6551 14.2917 22.2222H10.6389C10.7045 22.6669 10.9294 23.0726 11.2717 23.3638C11.6141 23.6551 12.0506 23.8121 12.5 23.8056Z" fill="black"/>
</g>
<defs>
<clipPath id="clip0_16_111">
<rect width="25" height="25" fill="white"/>
</clipPath>
</defs>
</svg>
