<svg width="17" height="17" viewBox="0 0 17 17" fill="none" xmlns="http://www.w3.org/2000/svg">
<rect width="17" height="17" fill="white"/>
<path d="M7.82 12.24C5.372 12.24 3.4 10.268 3.4 7.81999C3.4 5.37199 5.372 3.39999 7.82 3.39999C10.268 3.39999 12.24 5.37199 12.24 7.81999C12.24 10.268 10.268 12.24 7.82 12.24ZM7.82 4.07999C5.746 4.07999 4.08 5.74599 4.08 7.81999C4.08 9.89399 5.746 11.56 7.82 11.56C9.894 11.56 11.56 9.89399 11.56 7.81999C11.56 5.74599 9.894 4.07999 7.82 4.07999Z" fill="#DBDBDB"/>
<path d="M11.1119 10.6308L14.1651 13.684L13.6843 14.1647L10.6311 11.1115L11.1119 10.6308Z" fill="#DBDBDB"/>
</svg>
